<svg id="Layer_1" data-name="Layer 1" xmlns="http://www.w3.org/2000/svg" viewBox="0 0 503.86 107.09"><defs><style>.cls-1{fill:#007ee5;}</style></defs><title>w3cdevelopers-logo1</title><path class="cls-1" d="M226,85.66q2.09-.28,4.38-0.36t3.89-.08a21.63,21.63,0,0,1,8.41,1.44,13.72,13.72,0,0,1,5.46,4,15.93,15.93,0,0,1,3,6.16,32.12,32.12,0,0,1,.91,7.9,33.8,33.8,0,0,1-.83,7.54,17.24,17.24,0,0,1-2.87,6.41,14.55,14.55,0,0,1-5.49,4.47,19.56,19.56,0,0,1-8.63,1.69h-1.87q-1.16,0-2.37-.11l-2.32-.14a12.52,12.52,0,0,1-1.65-.17V85.66h0Zm8.51,3.65q-0.77,0-2,.06a12.47,12.47,0,0,0-2,.22v30.94a5.94,5.94,0,0,0,.8.08l1.08,0.06,1.08,0.06h0.86a14,14,0,0,0,6.55-1.33,9.88,9.88,0,0,0,3.9-3.56,14.29,14.29,0,0,0,1.88-5.14,35.37,35.37,0,0,0,.5-6,34.12,34.12,0,0,0-.44-5.44,13.51,13.51,0,0,0-1.8-4.94,10.35,10.35,0,0,0-3.87-3.62A13.46,13.46,0,0,0,234.54,89.31Z" transform="translate(-45.7 -21.46)"/><path class="cls-1" d="M260.67,85.66h22.71v4.09H265.25V102.4H282v4.09H265.25v13.76h18.4v4.09h-23V85.66h0Z" transform="translate(-45.7 -21.46)"/><path class="cls-1" d="M304.59,118.65h0.61l10.5-33h4.59l-13,38.67h-5.36L288.67,85.65h5Z" transform="translate(-45.7 -21.46)"/><path class="cls-1" d="M327,85.66h22.71v4.09H331.55V102.4h16.74v4.09H331.55v13.76h18.4v4.09h-23V85.66h0Z" transform="translate(-45.7 -21.46)"/><path class="cls-1" d="M359.17,85.66h4.59v34.58H379.4v-9.61h4.09v13.7H359.17V85.66Z" transform="translate(-45.7 -21.46)"/><path class="cls-1" d="M390,105q0-9.61,3.39-14.81T403.84,85a13.68,13.68,0,0,1,6.53,1.44,11.48,11.48,0,0,1,4.33,4.06,18.28,18.28,0,0,1,2.37,6.3,42.94,42.94,0,0,1,.72,8.2q0,9.61-3.39,14.81T403.84,125a13.38,13.38,0,0,1-6.45-1.44,11.52,11.52,0,0,1-4.3-4.06,18.27,18.27,0,0,1-2.37-6.3A43,43,0,0,1,390,105Zm4.81,0a42.55,42.55,0,0,0,.41,6.08,17.31,17.31,0,0,0,1.47,5,9.35,9.35,0,0,0,2.77,3.48,7.06,7.06,0,0,0,4.38,1.3,7.41,7.41,0,0,0,7-3.87q2.19-3.87,2.19-12a42.71,42.71,0,0,0-.42-6A17.26,17.26,0,0,0,411.17,94a9.13,9.13,0,0,0-2.83-3.48,8.08,8.08,0,0,0-11.17,2.4l-0.13.2q-2.23,3.8-2.23,11.92h0Z" transform="translate(-45.7 -21.46)"/><path class="cls-1" d="M426,86a27.85,27.85,0,0,1,4.53-.66q2.43-.17,4.81-0.17a27.68,27.68,0,0,1,5.17.5,14,14,0,0,1,4.78,1.82,10.25,10.25,0,0,1,3.51,3.65,11.61,11.61,0,0,1,1.35,5.91,12.76,12.76,0,0,1-1.27,6,11.18,11.18,0,0,1-3.37,4,13.65,13.65,0,0,1-4.81,2.18,23.35,23.35,0,0,1-5.58.66H432.9a7.54,7.54,0,0,1-1.35-.08,9.43,9.43,0,0,1-.94-0.11v14.7H426V86Zm9.47,3.15c-1,0-1.89,0-2.77.06a9.49,9.49,0,0,0-2.11.28v16a2.91,2.91,0,0,0,.89.14l1.28,0.06H435a19.63,19.63,0,0,0,3.74-.36,9.71,9.71,0,0,0,3.35-1.3,6.88,6.88,0,0,0,2.41-2.65,9.24,9.24,0,0,0,.91-4.36,7.59,7.59,0,0,0-.86-3.78,6.85,6.85,0,0,0-2.27-2.43,9.63,9.63,0,0,0-3.19-1.3,16.64,16.64,0,0,0-3.56-.36h0Z" transform="translate(-45.7 -21.46)"/><path class="cls-1" d="M459.56,85.66h22.71v4.09H464.14V102.4h16.74v4.09H464.14v13.76h18.4v4.09h-23V85.66h0Z" transform="translate(-45.7 -21.46)"/><path class="cls-1" d="M492.32,86a47.23,47.23,0,0,1,4.82-.61q2.73-.22,5-0.22a20.48,20.48,0,0,1,4.82.55,11.17,11.17,0,0,1,4,1.82,9.26,9.26,0,0,1,2.78,3.31,10.81,10.81,0,0,1,1,5,10.12,10.12,0,0,1-.74,4,11.52,11.52,0,0,1-6,6.1l10.22,18.34h-5.36l-9.12-17h-6.87v17h-4.59V86h0Zm9.94,3.15h-1.49a12.13,12.13,0,0,0-1.49.06l-1.35.11a5.74,5.74,0,0,0-1,.17v14.25h4.31a10.15,10.15,0,0,0,6.3-1.88Q510,100,510,96a6.48,6.48,0,0,0-2-4.92,8,8,0,0,0-5.77-1.88h0Z" transform="translate(-45.7 -21.46)"/><path class="cls-1" d="M528.23,118.87a18.44,18.44,0,0,0,3.73,1.46,15.38,15.38,0,0,0,4.17.58,15.61,15.61,0,0,0,3.43-.36,8.1,8.1,0,0,0,2.79-1.16,6,6,0,0,0,1.88-2,5.72,5.72,0,0,0,.69-2.87,4.87,4.87,0,0,0-1.52-3.7,15.13,15.13,0,0,0-3.78-2.54q-2.27-1.1-4.92-2.16a29.18,29.18,0,0,1-4.92-2.49,13.8,13.8,0,0,1-3.78-3.51,8.69,8.69,0,0,1-1.52-5.28,9,9,0,0,1,.91-4.09A8.83,8.83,0,0,1,528,87.66a12.16,12.16,0,0,1,4-2,18.48,18.48,0,0,1,5.22-.69,35.38,35.38,0,0,1,6,.47,16.71,16.71,0,0,1,4.31,1.24l0.11-.06v0.11h0.06l-0.06.17v8.84h-4.07V89.83a30.41,30.41,0,0,0-3-.55,27.07,27.07,0,0,0-3.54-.22,11.38,11.38,0,0,0-3.29.44,8.21,8.21,0,0,0-2.49,1.19,5.4,5.4,0,0,0-1.57,1.74,4.27,4.27,0,0,0-.55,2.1,4.73,4.73,0,0,0,1.52,3.59,15.65,15.65,0,0,0,3.78,2.57q2.26,1.13,4.92,2.24a31.16,31.16,0,0,1,4.92,2.57A14.4,14.4,0,0,1,548,109a8.29,8.29,0,0,1,1.52,5.08,10.63,10.63,0,0,1-.91,4.48A9.86,9.86,0,0,1,546,122a11.74,11.74,0,0,1-4.14,2.21,18.5,18.5,0,0,1-5.55.77,22.84,22.84,0,0,1-4-.33,27.09,27.09,0,0,1-3.45-.83,26.72,26.72,0,0,1-2.82-1q-1.24-.55-2-0.94l0.06-.17v-9h4.09v6.16Z" transform="translate(-45.7 -21.46)"/><g id="Foreground"><rect class="cls-1" width="159.86" height="2.46"/><rect class="cls-1" y="104.62" width="159.86" height="2.46"/><path class="cls-1" d="M90.53,41.06l12.85,43.55,12.85-43.55H151v4.28L137.88,67.84a18.2,18.2,0,0,1,10.42,8,25.9,25.9,0,0,1,3.53,13.7q0,9.72-5.17,16.34a16.79,16.79,0,0,1-23.53,3.2l-0.63-.5A23.13,23.13,0,0,1,115.7,98l7.24-3a16.51,16.51,0,0,0,4.2,6.43,8.89,8.89,0,0,0,6.14,2.35q3.72,0,6.28-4.16a18.64,18.64,0,0,0,2.56-10q0-6.43-2.74-10-3.21-4.16-10-4.16h-3.53V71.19l12.37-21.42h-15l-0.85,1.45-18.2,61.29h-0.88L90,68.16,76.79,112.63H75.91L54.71,41.06H64L76.79,84.64l8.66-29.33L81.17,41.09h9.27Z" transform="translate(-45.7 -21.46)"/><path class="cls-1" d="M199.09,41.06a6.43,6.43,0,0,0-4.7,1.92,6.91,6.91,0,0,0-2,4.84,6.83,6.83,0,0,0,6.75,6.77,6.91,6.91,0,0,0,4.81-2,6.49,6.49,0,0,0,2-4.75,6.76,6.76,0,0,0-1.95-4.75A6.67,6.67,0,0,0,199.09,41.06ZM205,47.89A5.6,5.6,0,0,1,203.26,52,5.93,5.93,0,0,1,199,53.69,5.76,5.76,0,0,1,195,51.94a5.84,5.84,0,0,1-1.72-4.11A6,6,0,0,1,195,43.62,5.65,5.65,0,0,1,199.11,42,5.84,5.84,0,0,1,205,47.77s0,0.08,0,.12h0Zm-5.69-4h-2.89v7.67h1.4V48.23h1.42l1.56,3.27h1.62L200.69,48a2,2,0,0,0,1.75-2.07c0-1.36-1-2.07-3.16-2.07h0Zm-0.27.94c1.35,0,2,.37,2,1.32s-0.62,1.22-1.94,1.22H197.8V44.8H199Z" transform="translate(-45.7 -21.46)"/></g><g id="Calque_1" data-name="Calque 1"><path class="cls-1" d="M183.62,42.94l1.4,8.53L180,61a18.28,18.28,0,0,0-5.07-6.26c-2.67-1.88-4.41-2.29-7.13-1.73-3.49.72-7.45,4.9-9.18,10a34.35,34.35,0,0,0-2.16,11.88,27,27,0,0,0,.58,7,31.18,31.18,0,0,1-3-13.75,34.5,34.5,0,0,1,3.64-16.34c2.37-4.59,5.9-7.34,9-7.67s5.8,1.23,7.78,2.92a24.75,24.75,0,0,1,4.18,5.65Z" transform="translate(-45.7 -21.46)"/><path class="cls-1" d="M184.23,91.21a42.44,42.44,0,0,1-3.56,5.44c-1.37,1.51-3.82,4.18-6.84,5.51a12.74,12.74,0,0,1-7.59,1.3,14.94,14.94,0,0,1-6.73-2.74,26.13,26.13,0,0,1-4.86-4.82c-1.4-2-3.6-5.94-3.6-5.94s1.22,4,2,5.65a36.7,36.7,0,0,0,3.72,6.51c1.79,2.41,5.27,6.55,10.57,7.49a13.43,13.43,0,0,0,9.83-2,27.13,27.13,0,0,0,4-3.45,30.43,30.43,0,0,0,3.1-4.08c0.48-.75,1.26-2.27,1.26-2.27Z" transform="translate(-45.7 -21.46)"/></g><path class="cls-1" d="M226,25.66h22.15v4.09H230.62V43H247v4H230.62V64.29H226V25.66Z" transform="translate(-45.7 -21.46)"/><path class="cls-1" d="M255.37,45q0-9.61,3.39-14.81T269.21,25a13.66,13.66,0,0,1,6.53,1.44A11.48,11.48,0,0,1,280,30.5a18.29,18.29,0,0,1,2.37,6.3,42.92,42.92,0,0,1,.72,8.2q0,9.61-3.39,14.81T269.21,65a13.36,13.36,0,0,1-6.45-1.44,11.51,11.51,0,0,1-4.3-4.06,18.27,18.27,0,0,1-2.37-6.3A43,43,0,0,1,255.37,45Zm4.81,0a42.55,42.55,0,0,0,.41,6.08,17.32,17.32,0,0,0,1.47,5.06,9.37,9.37,0,0,0,2.77,3.48,7.06,7.06,0,0,0,4.38,1.3,7.41,7.41,0,0,0,7-3.87q2.19-3.87,2.19-12a42.74,42.74,0,0,0-.42-6,17.3,17.3,0,0,0-1.47-5.08,9.13,9.13,0,0,0-2.83-3.48,8.08,8.08,0,0,0-11.17,2.4l-0.13.2q-2.21,3.84-2.21,12h0Z" transform="translate(-45.7 -21.46)"/><path class="cls-1" d="M291.39,26q2.09-.38,4.82-0.61t5-.22a20.55,20.55,0,0,1,4.82.55,11.2,11.2,0,0,1,4,1.82,9.26,9.26,0,0,1,2.78,3.32,10.79,10.79,0,0,1,1,5,10.13,10.13,0,0,1-.74,4,11.39,11.39,0,0,1-1.82,3,11.26,11.26,0,0,1-2.23,2A11.47,11.47,0,0,1,307,46l10.22,18.34h-5.36l-9.12-17h-6.87v17H291.3V26h0.09Zm9.94,3.15h-1.49a14.54,14.54,0,0,0-1.49,0l-1.35.11a5.49,5.49,0,0,0-1,.17V43.73h4.31a10.16,10.16,0,0,0,6.3-1.88Q309,40,309,36a6.47,6.47,0,0,0-2-4.92,8,8,0,0,0-5.7-1.88V29.15Z" transform="translate(-45.7 -21.46)"/></svg>